<?xml version="1.0" standalone="no"?>
<svg
  width="600"
  height="600"
  viewBox="0 0 600 600"
  xmlns="http://www.w3.org/2000/svg"
>
  <g transform="translate(300,300)">
    <path d="M82.2,-132.1C118.3,-104.7,167.4,-101.8,197.8,-77.8C228.1,-53.9,239.8,-8.9,241.1,40C242.4,88.9,233.4,141.7,198.1,157.9C162.7,174.1,100.9,153.7,50.9,164.3C0.8,174.9,-37.5,216.5,-69.1,216C-100.7,215.5,-125.5,172.9,-139.1,133.7C-152.7,94.4,-155.1,58.5,-171.7,17.8C-188.3,-23,-219.2,-68.6,-215.7,-107.7C-212.2,-146.8,-174.2,-179.4,-132.5,-204.2C-90.8,-229,-45.4,-246,-11.2,-228.6C23.1,-211.2,46.1,-159.5,82.2,-132.1Z" fill="#ffffff" />
  </g>
</svg>
  