<?xml version="1.0" standalone="no"?>
<svg
  width="600"
  height="600"
  viewBox="0 0 600 600"
  xmlns="http://www.w3.org/2000/svg"
>
  <g transform="translate(300,300)">
    <path d="M108.6,-155.2C153.8,-140,212.4,-131.9,224.1,-103.2C235.8,-74.6,200.6,-25.4,192,27C183.5,79.4,201.7,135,182.8,160.4C163.9,185.9,107.9,181.2,63,177.3C18.2,173.3,-15.4,170.2,-46.5,160.2C-77.5,150.2,-106,133.4,-132.3,110.5C-158.6,87.6,-182.8,58.7,-188.7,26.3C-194.6,-6.1,-182.4,-41.9,-161.8,-68.4C-141.2,-95,-112.2,-112.3,-83.9,-135.1C-55.5,-158,-27.8,-186.5,2,-189.6C31.7,-192.7,63.4,-170.4,108.6,-155.2Z" fill="#ffffff" />
  </g>
</svg>
  