<?xml version="1.0" standalone="no"?>
<svg
  width="600"
  height="600"
  viewBox="0 0 600 600"
  xmlns="http://www.w3.org/2000/svg"
>
  <g transform="translate(300,300)">
    <path d="M134.8,-215.1C173,-185.2,201.1,-144.9,207.8,-102.9C214.5,-60.9,199.8,-17.2,190.8,25.6C181.8,68.4,178.6,110.2,157.2,137.9C135.8,165.6,96.2,179.2,59.3,180C22.4,180.7,-11.7,168.6,-49.3,160.7C-86.8,152.9,-127.7,149.5,-155.1,128.5C-182.6,107.5,-196.7,68.9,-203.5,28.6C-210.3,-11.6,-209.8,-53.6,-185.9,-76.2C-162,-98.7,-114.8,-102,-79.9,-133.4C-45.1,-164.8,-22.5,-224.4,12.9,-244.4C48.3,-264.5,96.6,-245,134.8,-215.1Z" fill="#ffffff" />
  </g>
</svg>
  